<?xml version="1.0" encoding="UTF-8"?>
<svg width="512" height="512" viewBox="0 0 24 24" xmlns="http://www.w3.org/2000/svg">
  <defs>
    <linearGradient id="grad" x1="0%" y1="0%" x2="100%" y2="100%">
      <stop offset="0%" stop-color="#8B5CF6" />
      <stop offset="100%" stop-color="#3B82F6" />
    </linearGradient>
  </defs>
  <rect width="100%" height="100%" fill="none" />
  <rect x="3" y="3" width="18" height="18" rx="2" stroke="url(#grad)" stroke-width="1.5" fill="rgba(139, 92, 246, 0.05)" />
  <circle cx="12" cy="12" r="6" stroke="url(#grad)" stroke-width="1.5" fill="rgba(139, 92, 246, 0.1)" />
  
  <!-- Happy face -->
  <g transform="translate(6, -1.5) scale(0.5)">
    <circle cx="9" cy="13" r="1.25" fill="url(#grad)" />
    <circle cx="15" cy="13" r="1.25" fill="url(#grad)" />
    <path d="M7.5 16a4.5 4.5 0 0 0 9 0" stroke="url(#grad)" stroke-width="1.5" stroke-linecap="round" />
  </g>
  
  <!-- Sad face -->
  <g transform="translate(0, 3) scale(0.5)">
    <circle cx="9" cy="13" r="1.25" fill="url(#grad)" />
    <circle cx="15" cy="13" r="1.25" fill="url(#grad)" />
    <path d="M16.5 16a4.5 4.5 0 0 1-9 0" stroke="url(#grad)" stroke-width="1.5" stroke-linecap="round" />
  </g>
  
  <!-- Surprised face -->
  <g transform="translate(12, 3) scale(0.5)">
    <circle cx="9" cy="13" r="1.25" fill="url(#grad)" />
    <circle cx="15" cy="13" r="1.25" fill="url(#grad)" />
    <circle cx="12" cy="16" r="1.5" fill="url(#grad)" />
  </g>
  
  <!-- Analytical elements -->
  <path d="M3 22l3-3M21 22l-3-3" stroke="url(#grad)" stroke-width="1" stroke-linecap="round" />
  <path d="M3 2l3 3M21 2l-3 3" stroke="url(#grad)" stroke-width="1" stroke-linecap="round" />
</svg>